<?xml version="1.0" encoding="utf-8"?>
<!-- Generator: Adobe Illustrator 16.0.0, SVG Export Plug-In . SVG Version: 6.00 Build 0)  -->
<!DOCTYPE svg PUBLIC "-//W3C//DTD SVG 1.1//EN" "http://www.w3.org/Graphics/SVG/1.1/DTD/svg11.dtd">
<svg version="1.1" id="Layer_1" xmlns="http://www.w3.org/2000/svg" xmlns:xlink="http://www.w3.org/1999/xlink" x="0px" y="0px"
	 width="90px" height="90px" viewBox="0 0 90 90" enable-background="new 0 0 90 90" xml:space="preserve">
<path fill="#49C5B6" d="M87.307,64.052l-9.269-9.271c-0.724-0.723-1.894-0.725-2.616-0.001c-0.722,0.723-0.723,1.894-0.001,2.616
	l9.269,9.271c0.36,0.36,0.834,0.542,1.309,0.542s0.945-0.18,1.309-0.541C88.027,65.945,88.027,64.773,87.307,64.052z M62.913,57.21
	c-0.66-5.335-3.485-10.185-7.757-13.441c-0.113-0.117-0.244-0.215-0.385-0.299c-0.1-0.071-0.188-0.154-0.287-0.224l-3.156-25.657
	c0.222-2.263,2.197-4.002,4.531-3.83l0.068,0.004l20.588-0.082V4.733L54.598,0.688l-0.207-0.026
	c-10.11-0.698-18.854,7.023-19.551,17.01l-3.222,25.606c-4.633,3.246-7.688,8.335-8.382,13.931
	C12.172,61.18,4.245,68.383,1.919,76.645l-0.208,0.74l6.785,12.033h69.158l6.783-12.034l-0.209-0.739
	C81.902,68.384,73.977,61.18,62.913,57.21z M75.491,85.719H10.657l-4.956-8.791c2.345-7.062,9.697-13.23,19.85-16.604l1.188-0.395
	l0.075-1.25c0.312-5.197,3.125-9.973,7.526-12.772l0.734-0.467l3.446-27.384l0.015-0.189C39.12,9.959,46.001,3.843,54.032,4.346
	l18.784,3.467v2.183l-16.771,0.066c-4.387-0.275-8.118,3.079-8.414,7.334l-0.021,0.269l3.142,25.537h-7.098
	c-1.021,0-1.85,0.828-1.85,1.85s0.829,1.851,1.85,1.851h9.542c2.936,2.336,4.978,5.619,5.781,9.264H36.19
	c-1.021,0-1.85,0.828-1.85,1.85c0,1.022,0.829,1.851,1.85,1.851h23.216l0.004,0.063l1.188,0.396
	c10.151,3.373,17.504,9.542,19.848,16.604L75.491,85.719z"/>
</svg>
