<?xml version="1.0" encoding="utf-8"?>
<!-- Generator: Adobe Illustrator 16.0.0, SVG Export Plug-In . SVG Version: 6.00 Build 0)  -->
<!DOCTYPE svg PUBLIC "-//W3C//DTD SVG 1.1//EN" "http://www.w3.org/Graphics/SVG/1.1/DTD/svg11.dtd">
<svg version="1.1" id="Capa_1" xmlns="http://www.w3.org/2000/svg" xmlns:xlink="http://www.w3.org/1999/xlink" x="0px" y="0px"
	 width="612px" height="792px" viewBox="0 0 612 792" enable-background="new 0 0 612 792" xml:space="preserve">
<g>
	<path d="M473.238,61.701v63.59l-77.382,73.159V6.947h-54.176v242.732l-34.489,32.609l-34.448-32.573V6.947h-54.176V198.48
		l-77.388-73.196V61.701H86.996v463.438l193.104,182.63v75.78h54.176v-75.78l193.14-182.63V61.701H473.238z M280.099,633.195
		L141.18,501.802V400.528l138.919,131.394V633.195z M280.099,457.343L141.18,325.948V199.865l138.919,131.371V457.343z
		 M473.238,501.802L334.282,633.203V531.922l138.956-131.408V501.802z M473.238,325.948L334.282,457.356V331.236L473.238,199.85
		V325.948z M473.238,325.948"/>
</g>
</svg>
