<?xml version="1.0" encoding="utf-8"?>
<!-- Generator: Adobe Illustrator 16.0.0, SVG Export Plug-In . SVG Version: 6.00 Build 0)  -->
<!DOCTYPE svg PUBLIC "-//W3C//DTD SVG 1.1//EN" "http://www.w3.org/Graphics/SVG/1.1/DTD/svg11.dtd">
<svg version="1.1" id="Capa_1" xmlns="http://www.w3.org/2000/svg" xmlns:xlink="http://www.w3.org/1999/xlink" x="0px" y="0px"
	 width="612px" height="792px" viewBox="0 0 612 792" enable-background="new 0 0 612 792" xml:space="preserve">
<g>
	<g>
		<path fill="#009045" d="M102.892,528.354C44.224,542.892,1.272,517.54,1.272,517.54s-14.278-73.605,53.743-133.214
			c16.446,10.979,39.959,22.971,69.812,28.768C100.276,456.94,99.075,499.397,102.892,528.354z M216.88,361.612
			c19.886-6.691,35.836-15.621,48.984-25.493c-2.733-18.92-4.312-40.879-2.427-63.639c-40.549-19.556-72.922-43.494-94.315-61.518
			c-0.919,0.283-1.767,0.471-2.709,0.777C68.304,244.773,60.858,330.724,60.858,330.724S118.819,394.669,216.88,361.612z
			 M153.242,548.759c0,0,67.031,27.048,132.814-23.255c1.249-17.059,4.618-35.318,11.215-54.851
			c5.796-17.223,13.053-32.043,21.063-45.214c-5.819-1.767-10.084-3.274-11.687-3.816l-19.107-7.139l-7.139-19.109
			c-0.542-1.602-2.05-5.843-3.817-11.686c-13.124,8.011-27.92,15.221-45.19,21.063c-19.556,6.55-37.792,9.966-54.874,11.263
			C126.193,481.751,153.242,548.759,153.242,548.759z M288.859,577.196c-43.777,24.574-86.21,25.729-115.237,21.936
			c-14.514,58.691,10.838,101.619,10.838,101.619s73.605,14.302,133.238-53.742C306.719,630.563,294.726,607.049,288.859,577.196z
			 M491.061,532.854c-18.048-21.37-41.962-53.742-61.518-94.314c-22.784,1.908-44.743,0.377-63.662-2.451
			c-9.872,13.147-18.778,29.146-25.47,49.031C307.354,583.205,371.3,641.142,371.3,641.142s85.927-7.445,119.007-105.554
			C490.613,534.669,490.755,533.797,491.061,532.854z M129.421,587.305l-10.438-4.241l-4.288-10.484
			c-33.15,8.316-62.932,7.232-86.092,2.615C3.134,630.351,22.807,679.24,22.807,679.24s48.866,19.649,104.046-5.82
			C122.188,650.26,121.128,620.502,129.421,587.305z M527.133,174.891C349.741-2.478,174.046,155.17,174.046,155.17
			s56.547,59.987,139.223,90.168c-17.765,62.885,8.835,134.581,8.835,134.581s71.697,26.6,134.582,8.859
			c30.205,82.676,90.145,139.176,90.145,139.176S704.501,352.235,527.133,174.891z"/>
	</g>
	<path fill="none" stroke="#349742" stroke-width="2" stroke-linecap="round" stroke-linejoin="round" stroke-miterlimit="10" d="
		M506.399,195.601"/>
	<path fill="none" stroke="#349742" stroke-width="2" stroke-linecap="round" stroke-linejoin="round" stroke-miterlimit="10" d="
		M588.438,113.561"/>
</g>
</svg>
